mtllib materials.mtl
v -0.1347496 -0.5806191 0.005845062
v -0.116663 -0.5806191 0.07334508
v -0.116663 -0.7806191 0.07334499
v -0.1347495 -0.7806191 0.005844988
v -0.0672496 -0.5806191 0.1227586
v -0.06724954 -0.7806193 0.1227584
v 0.0002504261 -0.5806191 0.1408452
v 0.000250462 -0.7806191 0.140845
v 0.06775047 -0.5806191 0.1227586
v 0.06775047 -0.7806191 0.1227584
v 0.1171639 -0.5806191 0.07334512
v 0.1171639 -0.7806191 0.07334504
v 0.1352505 -0.5806191 0.005845077
v 0.1352505 -0.7806191 0.005845008
v 0.1171639 -0.5806191 -0.06165497
v 0.1171639 -0.7806191 -0.06165501
v 0.06775048 -0.5806191 -0.1110684
v 0.06775048 -0.780619 -0.1110684
v 0.0002504522 -0.5806191 -0.129155
v 0.0002504867 -0.7806191 -0.129155
v -0.06724956 -0.5806191 -0.1110684
v -0.0672495 -0.7806191 -0.1110684
v -0.1166631 -0.5806191 -0.06165495
v -0.116663 -0.7806191 -0.06165498
v -0.06724957 -0.06061912 -0.1110673
v -0.1166631 -0.06061912 -0.06165383
v 0.0002504485 -0.060619 -0.1291539
v 0.06775049 -0.06061912 -0.1110673
v 0.1171639 -0.06061912 -0.06165386
v 0.1352505 -0.06061912 0.005846212
v 0.1171639 -0.06061912 0.07334626
v 0.06775048 -0.06061912 0.1227597
v 0.0002504261 -0.06061924 0.1408463
v -0.06724961 -0.06061912 0.1227597
v -0.1166631 -0.06061912 0.07334626
v -0.1347497 -0.06061912 0.005846182
v -0.03562201 0.009380817 -0.05628688
v -0.06188238 0.009380817 -0.03002652
v 0.0002502738 0.009380817 -0.06589882
v 0.03612256 0.009380817 -0.05628688
v 0.06238291 0.009380817 -0.03002654
v 0.07199488 0.009380817 0.005845774
v 0.06238291 0.009380817 0.04171807
v 0.03612256 0.009380817 0.06797843
v 0.0002502617 0.009380817 0.07759036
v -0.03562203 0.009380817 0.06797843
v -0.06188237 0.009380817 0.04171807
v -0.07149433 0.009380817 0.005845757
v -0.01403755 0.02938104 -0.01890163
v -0.02449697 0.02938104 -0.008442207
v 0.0002502715 0.02938104 -0.02273004
v 0.01453809 0.02938104 -0.01890163
v 0.02499751 0.02938104 -0.008442215
v 0.02882593 0.02938104 0.005845616
v 0.02499751 0.02938104 0.02013344
v 0.01453809 0.02938104 0.03059286
v 0.0002502669 0.02938104 0.03442127
v -0.01403756 0.02938104 0.03059286
v -0.02449697 0.02938104 0.02013344
v -0.02832538 0.02938104 0.00584561
v 0.0002498957 0.1043807 -0.01915484
v -0.0122501 0.1043807 -0.01580547
v -0.0122501 0.0243808 -0.01580547
v 0.0002498957 0.0243808 -0.01915484
v -0.02140074 0.1043807 -0.006654837
v -0.02140074 0.0243808 -0.006654837
v -0.02475011 0.1043807 0.005845161
v -0.02475011 0.0243808 0.005845161
v -0.02140074 0.1043807 0.01834516
v -0.02140074 0.0243808 0.01834516
v -0.01225011 0.1043807 0.02749579
v -0.01225011 0.0243808 0.02749579
v 0.0002498934 0.1043807 0.03084516
v 0.0002498934 0.0243808 0.03084516
v 0.0127499 0.1043807 0.0274958
v 0.0127499 0.0243808 0.0274958
v 0.02190053 0.1043807 0.01834516
v 0.02190053 0.0243808 0.01834516
v 0.02524989 0.1043807 0.005845165
v 0.02524989 0.0243808 0.005845165
v 0.02190053 0.1043807 -0.006654833
v 0.02190053 0.0243808 -0.006654833
v 0.01274989 0.1043807 -0.01580547
v 0.01274989 0.0243808 -0.01580547
v -0.1010001 0.1043808 -0.01915485
v -0.1010001 0.09125578 -0.01563801
v 0.09899995 0.0912559 -0.01563802
v 0.09899995 0.1043808 -0.01915485
v -0.1010001 0.08164763 -0.006029842
v 0.09899995 0.08164763 -0.006029838
v -0.1010001 0.07813084 0.007095158
v 0.09899995 0.07813084 0.007095175
v -0.1010001 0.08164763 0.02022016
v 0.09899995 0.08164763 0.02022019
v -0.1010001 0.09125578 0.02982832
v 0.09899995 0.0912559 0.02982837
v -0.1010001 0.1043808 0.03334515
v 0.09899995 0.1043808 0.0333452
v -0.1010001 0.1175058 0.02982831
v 0.09899995 0.1175059 0.02982836
v -0.1010001 0.1271141 0.02022015
v 0.09899995 0.1271141 0.02022018
v -0.1010001 0.1306309 0.007095147
v 0.09899995 0.1306309 0.007095166
v -0.1010001 0.1271141 -0.006029849
v 0.09899995 0.1271141 -0.006029842
v -0.1010001 0.1175058 -0.01563802
v 0.09899995 0.1175058 -0.01563803
v 0.09524985 0.1034285 -0.02844063
v 0.09190048 0.09092844 -0.02844063
v 0.09190051 0.09092855 0.009654623
v 0.09524987 0.1034285 0.009654623
v 0.08274985 0.08177781 -0.02844063
v 0.08274987 0.08177781 0.009654623
v 0.07024986 0.07842851 -0.02844063
v 0.07024987 0.07842851 0.009654623
v 0.05774986 0.08177781 -0.02844063
v 0.05774986 0.08177781 0.009654623
v 0.04859925 0.09092844 -0.02844062
v 0.04859923 0.09092855 0.009654623
v 0.04524988 0.1034285 -0.02844062
v 0.04524986 0.1034285 0.009654623
v 0.04859925 0.1159284 -0.02844062
v 0.04859923 0.1159285 0.009654623
v 0.05774988 0.1250792 -0.02844062
v 0.05774987 0.1250792 0.009654623
v 0.07024988 0.1284285 -0.02844062
v 0.07024987 0.1284285 0.009654623
v 0.08274986 0.1250792 -0.02844062
v 0.08274987 0.1250792 0.009654623
v 0.0919005 0.1159284 -0.02844063
v 0.09190051 0.1159284 0.009654623
v -0.04475015 0.1034285 -0.02844063
v -0.04809952 0.09092844 -0.02844063
v -0.04809949 0.09092855 0.009654623
v -0.04475013 0.1034285 0.009654623
v -0.05725015 0.08177781 -0.02844063
v -0.05725013 0.08177781 0.009654623
v -0.06975014 0.07842851 -0.02844063
v -0.06975012 0.07842851 0.009654623
v -0.08225013 0.08177781 -0.02844063
v -0.08225013 0.08177781 0.009654623
v -0.09140074 0.09092844 -0.02844062
v -0.09140076 0.09092855 0.009654623
v -0.09475011 0.1034285 -0.02844062
v -0.09475013 0.1034285 0.009654623
v -0.09140074 0.1159284 -0.02844062
v -0.09140076 0.1159285 0.009654623
v -0.08225011 0.1250792 -0.02844062
v -0.08225012 0.1250792 0.009654623
v -0.06975012 0.1284285 -0.02844062
v -0.06975012 0.1284285 0.009654623
v -0.05725014 0.1250792 -0.02844062
v -0.05725013 0.1250792 0.009654623
v -0.0480995 0.1159284 -0.02844063
v -0.04809949 0.1159284 0.009654623
vn -0.9659259 -3.221023E-07 0.2588191
vn -0.7071071 -4.589049E-07 0.7071067
vn -0.2588191 -4.735114E-07 0.9659259
vn 0.2588191 -3.832468E-07 0.9659259
vn 0.7071069 -1.86788E-07 0.7071068
vn 0.9659259 2.475998E-08 0.2588191
vn 0.9659259 1.958597E-07 -0.2588192
vn 0.7071069 3.007709E-07 -0.7071068
vn 0.2588191 3.499789E-07 -0.9659259
vn -0.2588188 2.533074E-07 -0.9659259
vn -0.7071068 5.409201E-08 -0.707107
vn -0.965926 -1.290999E-07 -0.2588187
vn -0.7071068 1.476763E-06 -0.7071071
vn 1.748456E-07 -1 -3.496912E-07
vn -0.2588188 2.052071E-06 -0.965926
vn 0.258819 2.035671E-06 -0.9659259
vn 0.7071069 1.46282E-06 -0.7071069
vn 0.9659259 4.903044E-07 -0.2588192
vn 0.9659258 -6.333291E-07 0.2588192
vn 0.7071069 -1.598378E-06 0.7071068
vn 0.2588191 -2.15786E-06 0.9659259
vn -0.2588192 -2.149698E-06 0.9659259
vn -0.707107 -1.59909E-06 0.7071066
vn -0.9659259 -6.132657E-07 0.2588191
vn -0.9659259 4.986998E-07 -0.2588189
vn -0.5327185 0.6575884 -0.5327183
vn -0.1949887 0.6575881 -0.727707
vn 0.1949885 0.6575886 -0.7277066
vn 0.5327174 0.6575897 -0.5327177
vn 0.7277045 0.6575909 -0.1949881
vn 0.7277032 0.6575924 0.1949879
vn 0.5327151 0.6575934 0.5327153
vn 0.1949871 0.6575936 0.7277024
vn -0.1949865 0.6575933 0.7277029
vn -0.5327162 0.6575921 0.5327159
vn -0.7277048 0.6575909 0.1949879
vn -0.7277061 0.6575893 -0.194988
vn -0.3058031 0.9016477 -0.3058034
vn -0.1119321 0.9016474 -0.4177357
vn 0.1119328 0.9016474 -0.4177357
vn 0.3058026 0.901648 -0.3058034
vn 0.417735 0.9016478 -0.1119315
vn 0.417734 0.9016483 0.111932
vn 0.3058029 0.9016482 0.3058025
vn 0.1119309 0.9016486 0.4177338
vn -0.111931 0.9016485 0.4177337
vn -0.305802 0.9016485 0.3058025
vn -0.4177345 0.901648 0.1119319
vn -0.4177357 0.9016475 -0.1119314
vn -1.748456E-07 1 3.496912E-07
vn -0.258819 -6.101542E-11 -0.9659258
vn -0.7071066 5.876192E-09 -0.7071069
vn -0.9659258 -1.50526E-08 -0.2588191
vn -0.9659258 2.45635E-08 0.258819
vn -0.7071069 -1.951945E-09 0.7071066
vn -0.258819 -6.439636E-10 0.9659259
vn 0.258819 -2.173976E-08 0.9659258
vn 0.7071069 -6.57969E-09 0.7071066
vn 0.9659258 1.962128E-08 0.2588191
vn 0.9659258 -8.363735E-09 -0.2588189
vn 0.7071068 2.863099E-09 -0.7071068
vn 0.2588188 -8.102141E-10 -0.9659259
vn 0 1 0
vn 0 -1 0
vn 9.191617E-08 -0.2588191 -0.9659261
vn -1.381423E-07 -0.707107 -0.7071069
vn -7.460525E-08 -0.9659261 -0.2588187
vn -3.332592E-07 -0.9659259 0.2588191
vn 3.879149E-08 -0.7071067 0.7071071
vn -1.802765E-07 -0.2588188 0.9659262
vn -2.139855E-07 0.2588194 0.965926
vn -2.101868E-07 0.7071071 0.7071067
vn -5.272235E-08 0.9659261 0.2588187
vn -1.843592E-07 0.9659259 -0.2588191
vn 1.941285E-07 0.7071068 -0.7071071
vn 2.889336E-08 0.2588188 -0.9659262
vn -1 -1.192093E-07 -8.742279E-08
vn 1 1.192093E-07 8.742279E-08
vn 0.9659259 -0.258819 3.832586E-08
vn 0.7071068 -0.7071069 -1.156659E-07
vn 0.2588187 -0.965926 1.791543E-08
vn -0.258819 -0.965926 -1.954852E-07
vn -0.707107 -0.7071068 1.849025E-07
vn -0.965926 -0.258819 -6.497898E-08
vn -0.9659259 0.2588192 -1.603952E-07
vn -0.7071066 0.7071069 -2.326632E-07
vn -0.2588187 0.965926 -1.45243E-07
vn 0.258819 0.965926 -3.221332E-07
vn 0.707107 0.7071069 4.801755E-08
vn 0.965926 0.258819 -8.640419E-08
vn 1.192093E-07 -1.192093E-07 -1
vn -1.192093E-07 1.192093E-07 1
vn 0.9659259 -0.258819 3.832586E-08
vn 0.7071068 -0.7071069 -1.156659E-07
vn 0.2588187 -0.965926 1.791543E-08
vn -0.258819 -0.965926 -1.954852E-07
vn -0.707107 -0.7071068 1.849025E-07
vn -0.965926 -0.258819 -6.497898E-08
vn -0.9659259 0.2588192 -1.603952E-07
vn -0.7071066 0.7071069 -2.326632E-07
vn -0.2588187 0.965926 -1.45243E-07
vn 0.258819 0.965926 -3.221332E-07
vn 0.707107 0.7071069 4.801755E-08
vn 0.965926 0.258819 -8.640419E-08
vn 1.192093E-07 -1.192093E-07 -1
vn -1.192093E-07 1.192093E-07 1
usemtl mat23
f 4//1 3//1 2//1 1//1
f 3//2 6//2 5//2 2//2
f 6//3 8//3 7//3 5//3
f 8//4 10//4 9//4 7//4
f 10//5 12//5 11//5 9//5
f 12//6 14//6 13//6 11//6
f 14//7 16//7 15//7 13//7
f 16//8 18//8 17//8 15//8
f 18//9 20//9 19//9 17//9
f 20//10 22//10 21//10 19//10
f 22//11 24//11 23//11 21//11
f 24//12 4//12 1//12 23//12
f 24//14 22//14 20//14 18//14 16//14 14//14 12//14 10//14 8//14 6//14 3//14 4//14
f 109//91 110//91 113//91 115//91 117//91 119//91 121//91 123//91 125//91 127//91 129//91 131//91
f 133//105 134//105 137//105 139//105 141//105 143//105 145//105 147//105 149//105 151//105 153//105 155//105
usemtl mat12
f 26//13 25//13 21//13 23//13
f 25//15 27//15 19//15 21//15
f 27//16 28//16 17//16 19//16
f 28//17 29//17 15//17 17//17
f 29//18 30//18 13//18 15//18
f 30//19 31//19 11//19 13//19
f 31//20 32//20 9//20 11//20
f 32//21 33//21 7//21 9//21
f 33//22 34//22 5//22 7//22
f 34//23 35//23 2//23 5//23
f 35//24 36//24 1//24 2//24
f 36//25 26//25 23//25 1//25
f 38//26 37//26 25//26 26//26
f 37//27 39//27 27//27 25//27
f 39//28 40//28 28//28 27//28
f 40//29 41//29 29//29 28//29
f 41//30 42//30 30//30 29//30
f 42//31 43//31 31//31 30//31
f 43//32 44//32 32//32 31//32
f 44//33 45//33 33//33 32//33
f 45//34 46//34 34//34 33//34
f 46//35 47//35 35//35 34//35
f 47//36 48//36 36//36 35//36
f 48//37 38//37 26//37 36//37
usemtl mat22
f 50//38 49//38 37//38 38//38
f 49//39 51//39 39//39 37//39
f 51//40 52//40 40//40 39//40
f 52//41 53//41 41//41 40//41
f 53//42 54//42 42//42 41//42
f 54//43 55//43 43//43 42//43
f 55//44 56//44 44//44 43//44
f 56//45 57//45 45//45 44//45
f 57//46 58//46 46//46 45//46
f 58//47 59//47 47//47 46//47
f 59//48 60//48 48//48 47//48
f 60//49 50//49 38//49 48//49
f 60//50 59//50 58//50 57//50 56//50 55//50 54//50 53//50 52//50 51//50 49//50 50//50
f 64//51 63//51 62//51 61//51
f 63//52 66//52 65//52 62//52
f 66//53 68//53 67//53 65//53
f 68//54 70//54 69//54 67//54
f 70//55 72//55 71//55 69//55
f 72//56 74//56 73//56 71//56
f 74//57 76//57 75//57 73//57
f 76//58 78//58 77//58 75//58
f 78//59 80//59 79//59 77//59
f 80//60 82//60 81//60 79//60
f 82//61 84//61 83//61 81//61
f 84//62 64//62 61//62 83//62
f 61//63 62//63 65//63 67//63 69//63 71//63 73//63 75//63 77//63 79//63 81//63 83//63
f 84//64 82//64 80//64 78//64 76//64 74//64 72//64 70//64 68//64 66//64 63//64 64//64
f 88//65 87//65 86//65 85//65
f 87//66 90//66 89//66 86//66
f 90//67 92//67 91//67 89//67
f 92//68 94//68 93//68 91//68
f 94//69 96//69 95//69 93//69
f 96//70 98//70 97//70 95//70
f 98//71 100//71 99//71 97//71
f 100//72 102//72 101//72 99//72
f 102//73 104//73 103//73 101//73
f 104//74 106//74 105//74 103//74
f 106//75 108//75 107//75 105//75
f 108//76 88//76 85//76 107//76
f 85//77 86//77 89//77 91//77 93//77 95//77 97//77 99//77 101//77 103//77 105//77 107//77
f 108//78 106//78 104//78 102//78 100//78 98//78 96//78 94//78 92//78 90//78 87//78 88//78
f 112//79 111//79 110//79 109//79
f 111//80 114//80 113//80 110//80
f 114//81 116//81 115//81 113//81
f 116//82 118//82 117//82 115//82
f 118//83 120//83 119//83 117//83
f 120//84 122//84 121//84 119//84
f 122//85 124//85 123//85 121//85
f 124//86 126//86 125//86 123//86
f 126//87 128//87 127//87 125//87
f 128//88 130//88 129//88 127//88
f 130//89 132//89 131//89 129//89
f 132//90 112//90 109//90 131//90
f 132//92 130//92 128//92 126//92 124//92 122//92 120//92 118//92 116//92 114//92 111//92 112//92
f 136//93 135//93 134//93 133//93
f 135//94 138//94 137//94 134//94
f 138//95 140//95 139//95 137//95
f 140//96 142//96 141//96 139//96
f 142//97 144//97 143//97 141//97
f 144//98 146//98 145//98 143//98
f 146//99 148//99 147//99 145//99
f 148//100 150//100 149//100 147//100
f 150//101 152//101 151//101 149//101
f 152//102 154//102 153//102 151//102
f 154//103 156//103 155//103 153//103
f 156//104 136//104 133//104 155//104
f 156//106 154//106 152//106 150//106 148//106 146//106 144//106 142//106 140//106 138//106 135//106 136//106
